<svg width="102" height="103" viewBox="0 0 102 103" fill="none" xmlns="http://www.w3.org/2000/svg">
<g filter="url(#filter0_d_0_687)">
<ellipse cx="51" cy="48.5" rx="48" ry="48.5" fill="#5F37A8"/>
</g>
<ellipse cx="51" cy="46.3498" rx="48" ry="46.3498" fill="#834EE3"/>
<ellipse cx="51" cy="46.3498" rx="48" ry="46.3498" fill="url(#paint0_linear_0_687)"/>
<ellipse cx="50.9999" cy="47.3055" rx="36.8485" ry="36.3153" fill="#BABFD4"/>
<ellipse cx="50.9999" cy="49.2169" rx="36.8485" ry="34.4039" fill="url(#paint1_linear_0_687)"/>
<path fill-rule="evenodd" clip-rule="evenodd" d="M68.6757 30.0679C67.0929 29.2723 65.044 29.5563 62.9063 30.8669C61.2158 31.9035 59.664 33.4779 58.8565 34.9758C57.3146 37.8358 57.9192 40.3578 58.3084 41.4225C57.7763 43.0957 57.0417 44.4861 56.1075 45.5921C55.3545 44.658 54.9344 43.4811 54.9344 42.2502V42.1901L56.9135 40.1679C57.125 39.9518 57.6725 39.1001 56.9134 38.3245C56.4153 37.8155 55.6076 37.8155 55.1094 38.3245L54.9342 38.5034V38.0964C54.9342 37.3766 54.3631 36.793 53.6586 36.793C52.9541 36.793 52.383 37.3766 52.383 38.0964V38.5034L52.2078 38.3245C51.7098 37.8155 50.902 37.8155 50.4038 38.3245C49.9056 38.8334 49.9056 39.6588 50.4038 40.1678L52.3831 42.19V42.25C52.3831 44.1125 53.0251 45.8929 54.1762 47.2978C52.1091 48.63 49.4311 49.0813 46.1574 48.6424C44.9763 48.4839 43.7838 48.4642 42.6148 48.5799C41.1488 47.1153 39.1396 46.2842 37.0232 46.2842H36.9636L34.9561 44.3294C34.4508 43.8375 33.6315 43.8375 33.1262 44.3294C32.6209 44.8214 32.6209 45.6193 33.1262 46.1113L33.3038 46.2843H32.8998C32.1853 46.2843 31.6059 46.8484 31.6059 47.5442C31.6059 48.24 32.1853 48.8039 32.8998 48.8039H33.3039L33.1262 48.977C32.6209 49.469 32.6209 50.2668 33.1262 50.7589C33.3789 51.0049 33.71 51.128 34.0411 51.128C34.3722 51.128 34.7034 51.0049 34.9561 50.7589L36.9637 48.804H37.0233C37.8067 48.804 38.5678 48.9752 39.2579 49.2933C39.351 49.2683 39.4444 49.244 39.538 49.2205L39.4523 49.2487C37.263 49.9767 35.2883 51.2409 33.7418 52.9042C31.0752 55.7723 30.0987 59.3492 30.9177 63.2485C31.5208 66.1198 32.8957 68.1543 32.9539 68.2395C33.2005 68.6003 33.6078 68.8078 34.0333 68.8078C34.1372 68.8078 34.2423 68.7953 34.3463 68.7699C34.8764 68.6397 35.2688 68.1952 35.3301 67.6559C35.3369 67.5967 36.0443 61.6981 39.6974 58.3606C40.1627 57.9355 41.9217 56.581 45.0233 56.9968C46.118 57.1436 47.177 57.2312 48.1996 57.2596C48.7603 58.3386 48.9333 59.5858 48.6708 60.7943L48.6581 60.8528L46.2628 62.3947C45.6599 62.7829 45.4852 63.5871 45.8727 64.191C46.2601 64.7951 47.0629 64.9699 47.6658 64.5819L47.8777 64.4454L47.7915 64.842C47.6392 65.5436 48.0834 66.236 48.7836 66.3886C48.8766 66.4088 48.9693 66.4186 49.0607 66.4186C49.6579 66.4186 50.1953 66.0032 50.3275 65.3949L50.4137 64.9983L50.5499 65.2107C50.7978 65.5972 51.2158 65.8081 51.6427 65.8081C51.8828 65.8081 52.1259 65.7413 52.3431 65.6017C52.9458 65.2135 53.1206 64.4093 52.7331 63.8054L51.194 61.4058L51.2067 61.3472C51.511 59.9464 51.4249 58.5103 50.9805 57.1838C54.5108 56.8791 57.531 55.7662 60.0015 53.8535C60.2935 53.6274 60.5771 53.3908 60.8524 53.1437C62.2599 54.344 64.0698 55.0159 65.966 55.0159H66.0254L68.0256 56.9707C68.2775 57.2168 68.6073 57.3398 68.9373 57.3398C69.2671 57.3398 69.5972 57.2167 69.8489 56.9707C70.3524 56.4787 70.3524 55.6809 69.8489 55.1889L69.6719 55.0158H70.0744C70.7863 55.0159 71.3635 54.4518 71.3635 53.756C71.3635 53.0602 70.7863 52.4961 70.0742 52.4961H69.6717L69.8487 52.3231C70.3522 51.8312 70.3522 51.0333 69.8487 50.5413C69.3453 50.0492 68.5291 50.0494 68.0255 50.5413L66.0253 52.496H65.9659C64.7235 52.496 63.5361 52.0648 62.6033 51.2923C64.027 49.5226 65.1424 47.3825 65.9362 44.8925C67.9858 44.1713 69.4384 42.9852 70.2579 41.3621C71.7097 38.4867 72.2233 31.8508 68.6757 30.0679Z" fill="#3B4262"/>
<defs>
<filter id="filter0_d_0_687" x="0" y="0" width="102" height="103" filterUnits="userSpaceOnUse" color-interpolation-filters="sRGB">
<feFlood flood-opacity="0" result="BackgroundImageFix"/>
<feColorMatrix in="SourceAlpha" type="matrix" values="0 0 0 0 0 0 0 0 0 0 0 0 0 0 0 0 0 0 127 0" result="hardAlpha"/>
<feOffset dy="3"/>
<feGaussianBlur stdDeviation="1.5"/>
<feColorMatrix type="matrix" values="0 0 0 0 0 0 0 0 0 0 0 0 0 0 0 0 0 0 0.196706 0"/>
<feBlend mode="normal" in2="BackgroundImageFix" result="effect1_dropShadow_0_687"/>
<feBlend mode="normal" in="SourceGraphic" in2="effect1_dropShadow_0_687" result="shape"/>
</filter>
<linearGradient id="paint0_linear_0_687" x1="3" y1="0" x2="3" y2="92.6995" gradientUnits="userSpaceOnUse">
<stop stop-color="white" stop-opacity="0.0966455"/>
<stop offset="1" stop-color="white" stop-opacity="0.01"/>
</linearGradient>
<linearGradient id="paint1_linear_0_687" x1="87.2376" y1="83.6209" x2="87.2376" y2="15.9535" gradientUnits="userSpaceOnUse">
<stop stop-color="#F3F3F3"/>
<stop offset="1" stop-color="#DADADA"/>
</linearGradient>
</defs>
</svg>
