<svg width="102" height="103" viewBox="0 0 102 103" fill="none" xmlns="http://www.w3.org/2000/svg">
<g filter="url(#filter0_d_0_646)">
<ellipse cx="51" cy="48.5" rx="48" ry="48.5" fill="#2A45C2"/>
</g>
<ellipse cx="51" cy="46.3498" rx="48" ry="46.3498" fill="#4664F4"/>
<ellipse cx="51" cy="46.3498" rx="48" ry="46.3498" fill="url(#paint0_linear_0_646)"/>
<ellipse cx="50.9999" cy="47.3055" rx="36.8485" ry="36.3153" fill="#BABFD4"/>
<ellipse cx="50.9999" cy="49.2169" rx="36.8485" ry="34.4039" fill="url(#paint1_linear_0_646)"/>
<path d="M65.317 37.9033C65.0455 37.8006 64.7627 37.756 64.5018 37.774C64.1248 37.8 63.8203 37.9516 63.6399 38.1996C62.5773 39.673 61.7071 42.4556 61.0054 44.6913C60.6833 45.7253 60.2509 47.1089 59.9379 47.7656C59.6113 45.9258 59.9802 39.1862 60.1232 36.5907L60.1256 36.5488C60.2248 34.7456 60.2381 34.4294 60.2164 34.2905C60.0588 33.3014 59.6583 32.6521 59.0257 32.3615C58.3862 32.0667 57.5556 32.1971 56.6608 32.7301C56.2123 32.9986 56.0882 33.9204 55.7031 38.0984L55.7018 38.1168C55.4897 40.4121 55.0017 45.6971 54.4012 46.5773C53.7236 45.3459 52.7914 38.3493 52.3891 35.3208C52.1075 33.1998 51.9435 31.982 51.8333 31.6143C51.6011 30.8437 50.6213 30.188 49.6511 30.1517C48.8436 30.112 48.181 30.5186 47.8648 31.2252C47.2732 31.8769 47.4822 34.0381 48.1361 39.157C48.4474 41.5931 49.0899 46.6253 48.6855 47.1898C47.8793 47.103 46.4952 43.951 44.5711 37.8184C44.0314 36.101 43.8643 35.5845 43.6985 35.3583C43.3716 34.5708 42.2609 33.9633 41.265 34.0319C41.1799 34.0378 41.0973 34.0487 41.0156 34.0641C40.4943 34.1666 39.3047 34.6416 39.5582 36.8337C40.2607 39.8728 41.0237 42.1042 41.7642 44.2699L41.7792 44.3133C42.2223 45.6105 42.6411 46.8362 43.0303 48.1965C43.9477 51.4081 43.591 53.4008 43.5866 53.4232C43.5561 53.6283 43.4922 53.7535 43.3959 53.7973C43.3613 53.8134 43.3169 53.823 43.2669 53.8265C42.9762 53.8465 42.5401 53.6559 42.3154 53.5317C41.8021 52.5606 39.2462 47.9318 36.9302 47.2898L36.847 47.2655L36.7628 47.2732C35.9134 47.3526 35.2888 47.6705 34.9071 48.2177C34.3022 49.0831 34.5526 50.1854 34.6133 50.4064L34.6475 50.4856C34.6664 50.5189 36.5236 53.8707 36.8111 55.4299C37.059 56.7666 38.3414 58.2154 39.3724 59.3794L39.4149 59.4268C39.7512 59.8077 40.0415 60.1369 40.2704 60.4416C43.2621 63.5305 47.9934 66.1288 48.032 66.1496C48.6223 66.5809 48.9506 66.9975 48.9852 67.3562C49.0072 67.591 48.884 67.7313 48.8797 67.7361L48.7767 67.8425L49.4306 68.4717L61.913 67.6036L62.4451 65.1897C64.0908 58.3718 63.7472 52.5586 63.7418 52.5198C63.7478 52.306 64.2091 50.2376 64.5799 48.5665L64.5909 48.524C65.3302 45.1949 66.2498 41.0525 66.4261 39.477C66.5028 38.8033 66.0674 38.1845 65.317 37.9033Z" fill="#3B4262"/>
<defs>
<filter id="filter0_d_0_646" x="0" y="0" width="102" height="103" filterUnits="userSpaceOnUse" color-interpolation-filters="sRGB">
<feFlood flood-opacity="0" result="BackgroundImageFix"/>
<feColorMatrix in="SourceAlpha" type="matrix" values="0 0 0 0 0 0 0 0 0 0 0 0 0 0 0 0 0 0 127 0" result="hardAlpha"/>
<feOffset dy="3"/>
<feGaussianBlur stdDeviation="1.5"/>
<feColorMatrix type="matrix" values="0 0 0 0 0 0 0 0 0 0 0 0 0 0 0 0 0 0 0.196706 0"/>
<feBlend mode="normal" in2="BackgroundImageFix" result="effect1_dropShadow_0_646"/>
<feBlend mode="normal" in="SourceGraphic" in2="effect1_dropShadow_0_646" result="shape"/>
</filter>
<linearGradient id="paint0_linear_0_646" x1="3" y1="0" x2="3" y2="92.6995" gradientUnits="userSpaceOnUse">
<stop stop-color="white" stop-opacity="0.0966455"/>
<stop offset="1" stop-color="white" stop-opacity="0.01"/>
</linearGradient>
<linearGradient id="paint1_linear_0_646" x1="87.2376" y1="83.6209" x2="87.2376" y2="15.9535" gradientUnits="userSpaceOnUse">
<stop stop-color="#F3F3F3"/>
<stop offset="1" stop-color="#DADADA"/>
</linearGradient>
</defs>
</svg>
