<svg width="102" height="103" viewBox="0 0 102 103" fill="none" xmlns="http://www.w3.org/2000/svg">
<g filter="url(#filter0_d_0_656)">
<ellipse cx="51" cy="48.5" rx="48" ry="48.5" fill="#2D8DAB"/>
</g>
<ellipse cx="51" cy="46.3498" rx="48" ry="46.3498" fill="#3FB7CD"/>
<ellipse cx="51" cy="46.3498" rx="48" ry="46.3498" fill="url(#paint0_linear_0_656)"/>
<ellipse cx="50.9999" cy="47.3055" rx="36.8485" ry="36.3153" fill="#BABFD4"/>
<ellipse cx="50.9999" cy="49.2169" rx="36.8485" ry="34.4039" fill="url(#paint1_linear_0_656)"/>
<path d="M67.2478 50.0873L66.6764 49.5242C65.3112 48.178 63.0794 47.8848 61.4126 48.8289L57.8535 50.8338L58.5953 34.7755C58.5953 33.4292 57.4842 32.3334 56.1173 32.3334C55.8221 32.3334 55.538 32.3848 55.2745 32.4789L55.3629 31.6171C55.3629 30.2554 54.2344 29.1479 52.8486 29.1479C51.567 29.1479 50.4922 30.0953 50.3564 31.31L48.0726 44.9092C48.0426 45.0943 47.7174 45.0756 47.6827 44.959L44.9853 34.0562C44.6902 33.0421 43.7368 32.3335 42.6668 32.3335C41.9265 32.3335 41.2384 32.6617 40.7775 33.2342C40.3182 33.8066 40.1509 34.543 40.3214 35.2531L40.8454 37.4486C40.5471 37.4245 40.2472 37.4642 39.9615 37.5591C38.8978 37.9082 38.249 38.9551 38.4211 40.061L40.0089 49.0576C40.0089 52.6072 40.6403 55.2335 41.1706 56.8107C41.472 57.7106 41.6251 58.657 41.6251 59.6237C41.6251 60.4653 41.5067 61.3029 41.2715 62.1117L40.0404 66.3596C39.9709 66.5999 40.0199 66.8581 40.1714 67.058C40.3245 67.2571 40.5628 67.3745 40.8169 67.3745H55.3629C55.6233 67.3745 55.8664 67.2517 56.0179 67.044C56.171 66.8364 56.212 66.5688 56.1299 66.3262C56.122 66.3052 55.4465 64.2489 56.0858 61.4514C56.897 60.8027 59.7364 58.5271 60.756 57.6095C62.4417 56.0921 67.0599 51.404 67.2557 51.205C67.5635 50.893 67.5603 50.3953 67.2478 50.0873Z" fill="#3B4262"/>
<defs>
<filter id="filter0_d_0_656" x="0" y="0" width="102" height="103" filterUnits="userSpaceOnUse" color-interpolation-filters="sRGB">
<feFlood flood-opacity="0" result="BackgroundImageFix"/>
<feColorMatrix in="SourceAlpha" type="matrix" values="0 0 0 0 0 0 0 0 0 0 0 0 0 0 0 0 0 0 127 0" result="hardAlpha"/>
<feOffset dy="3"/>
<feGaussianBlur stdDeviation="1.5"/>
<feColorMatrix type="matrix" values="0 0 0 0 0 0 0 0 0 0 0 0 0 0 0 0 0 0 0.196706 0"/>
<feBlend mode="normal" in2="BackgroundImageFix" result="effect1_dropShadow_0_656"/>
<feBlend mode="normal" in="SourceGraphic" in2="effect1_dropShadow_0_656" result="shape"/>
</filter>
<linearGradient id="paint0_linear_0_656" x1="3" y1="0" x2="3" y2="92.6995" gradientUnits="userSpaceOnUse">
<stop stop-color="white" stop-opacity="0.0966455"/>
<stop offset="1" stop-color="white" stop-opacity="0.01"/>
</linearGradient>
<linearGradient id="paint1_linear_0_656" x1="87.2376" y1="83.6209" x2="87.2376" y2="15.9535" gradientUnits="userSpaceOnUse">
<stop stop-color="#F3F3F3"/>
<stop offset="1" stop-color="#DADADA"/>
</linearGradient>
</defs>
</svg>
